<?xml version="1.0" encoding="utf-8"?>
<!-- Generator: Adobe Illustrator 19.0.0, SVG Export Plug-In . SVG Version: 6.00 Build 0)  -->
<svg version="1.1" id="Layer_1" xmlns="http://www.w3.org/2000/svg" xmlns:xlink="http://www.w3.org/1999/xlink" x="0px" y="0px"
	 viewBox="0 0 599.4 196.4" style="enable-background:new 0 0 599.4 196.4;" xml:space="preserve">
<style type="text/css">
	.st0{clip-path:url(#SVGID_2_);fill:#5D5D5D;}
	.st1{clip-path:url(#SVGID_2_);fill:#204A5D;}
</style>
<g>
	<defs>
		<rect id="SVGID_1_" width="599.4" height="196.4"/>
	</defs>
	<clipPath id="SVGID_2_">
		<use xlink:href="#SVGID_1_"  style="overflow:visible;"/>
	</clipPath>
	<path class="st0" d="M20.9,192.1c-1.1,1.5-2.4,2.6-3.9,3.3c-1.5,0.7-3.1,1-4.8,1c-1.8,0-3.4-0.3-4.9-0.9c-1.5-0.6-2.8-1.5-3.8-2.6
		c-1.1-1.1-1.9-2.4-2.5-3.9c-0.6-1.5-0.9-3.2-0.9-5c0-1.8,0.3-3.5,0.9-5c0.6-1.5,1.4-2.8,2.5-3.9c1.1-1.1,2.3-2,3.8-2.6
		c1.5-0.6,3.1-0.9,4.9-0.9c1.6,0,3.1,0.3,4.5,0.8c1.4,0.6,2.6,1.5,3.6,2.8l-1.8,1.5c-0.7-1.1-1.7-1.9-2.8-2.4
		c-1.1-0.5-2.3-0.8-3.5-0.8c-1.5,0-2.9,0.3-4.1,0.8c-1.2,0.5-2.3,1.3-3.1,2.2c-0.9,0.9-1.5,2-2,3.3c-0.5,1.3-0.7,2.6-0.7,4.1
		c0,1.5,0.2,2.8,0.7,4.1c0.5,1.3,1.1,2.4,2,3.3c0.9,0.9,1.9,1.7,3.1,2.2c1.2,0.5,2.6,0.8,4.1,0.8c0.6,0,1.2-0.1,1.9-0.2
		c0.6-0.1,1.3-0.4,1.9-0.7c0.6-0.3,1.2-0.7,1.7-1.1c0.6-0.5,1-1,1.5-1.6L20.9,192.1z"/>
	<path class="st0" d="M54.9,172.2h2.3l9.9,23.6h-2.5l-2.6-6.3H49.6l-2.7,6.3h-2.3L54.9,172.2z M56,174.6l-5.5,12.9h10.8L56,174.6z"
		/>
	<path class="st0" d="M93.3,172.2h6.8c0.8,0,1.7,0.1,2.6,0.3c0.9,0.2,1.7,0.5,2.5,1c0.7,0.5,1.4,1.1,1.8,1.9c0.5,0.8,0.7,1.8,0.7,3
		c0,1.1-0.2,2-0.6,2.8c-0.4,0.8-0.9,1.4-1.6,1.9c-0.7,0.5-1.4,0.9-2.3,1.1c-0.9,0.2-1.7,0.4-2.7,0.4h-5.1v11.2h-2.2V172.2z
		 M95.5,182.6h5c0.6,0,1.2-0.1,1.8-0.2c0.6-0.1,1.1-0.4,1.6-0.7c0.5-0.3,0.8-0.8,1.1-1.3c0.3-0.5,0.4-1.2,0.4-2
		c0-0.8-0.2-1.4-0.4-1.9c-0.3-0.5-0.7-1-1.2-1.3c-0.5-0.3-1-0.6-1.6-0.8c-0.6-0.2-1.2-0.2-1.9-0.2h-4.9V182.6z"/>
	<rect x="135.1" y="172.2" class="st0" width="2.2" height="23.6"/>
	<polygon class="st0" points="171.8,174.2 163.7,174.2 163.7,172.2 182,172.2 182,174.2 174,174.2 174,195.8 171.8,195.8 	"/>
	<path class="st0" d="M213.4,172.2h2.3l9.9,23.6h-2.5l-2.6-6.3H208l-2.7,6.3h-2.3L213.4,172.2z M214.4,174.6l-5.5,12.9h10.8
		L214.4,174.6z"/>
	<polygon class="st0" points="251.7,172.2 253.9,172.2 253.9,193.8 264.9,193.8 264.9,195.8 251.7,195.8 	"/>
	<polygon class="st0" points="319.8,172.2 323.1,172.2 331.7,192 340.3,172.2 343.4,172.2 343.4,195.8 341.2,195.8 341.2,175 
		341.1,175 332.2,195.8 331.2,195.8 322.1,175 322,175 322,195.8 319.8,195.8 	"/>
	<path class="st0" d="M379.3,172.2h2.3l9.9,23.6H389l-2.6-6.3h-12.5l-2.7,6.3H369L379.3,172.2z M380.3,174.6l-5.5,12.9h10.8
		L380.3,174.6z"/>
	<path class="st0" d="M417.3,172.2h6.2c0.3,0,0.7,0,1.3,0c0.5,0,1.1,0.1,1.7,0.2c0.6,0.1,1.3,0.3,1.9,0.5c0.6,0.2,1.2,0.6,1.7,1.1
		c0.5,0.5,0.9,1.1,1.3,1.8c0.3,0.7,0.5,1.6,0.5,2.6c0,1.1-0.2,2.1-0.6,2.8c-0.4,0.7-0.9,1.3-1.5,1.8c-0.6,0.5-1.2,0.8-1.9,1
		c-0.7,0.2-1.4,0.4-2,0.5l6.9,11.3h-2.5l-6.6-11.2h-4.1v11.2h-2.2V172.2z M419.5,182.6h4.7c1.2,0,2.1-0.1,2.8-0.4
		c0.7-0.3,1.3-0.6,1.7-1.1c0.4-0.4,0.7-0.9,0.8-1.4c0.1-0.5,0.2-0.9,0.2-1.3c0-0.4-0.1-0.8-0.2-1.3c-0.1-0.5-0.4-0.9-0.8-1.4
		c-0.4-0.4-1-0.8-1.7-1.1c-0.7-0.3-1.7-0.4-2.8-0.4h-4.7V182.6z"/>
	<polygon class="st0" points="459.4,172.2 461.6,172.2 461.6,182.6 461.8,182.6 473.3,172.2 476.3,172.2 464.4,183 477,195.8 
		473.8,195.8 461.8,183.6 461.6,183.6 461.6,195.8 459.4,195.8 	"/>
	<polygon class="st0" points="502.2,172.2 516.6,172.2 516.6,174.2 504.4,174.2 504.4,182.6 515.9,182.6 515.9,184.6 504.4,184.6 
		504.4,193.8 517.2,193.8 517.2,195.8 502.2,195.8 	"/>
	<polygon class="st0" points="549.6,174.2 541.5,174.2 541.5,172.2 559.8,172.2 559.8,174.2 551.8,174.2 551.8,195.8 549.6,195.8 	
		"/>
	<path class="st0" d="M586.5,191.4c0.6,1,1.3,1.7,2.2,2.2c0.9,0.5,2,0.7,3.1,0.7c0.7,0,1.4-0.1,2.1-0.3c0.6-0.2,1.2-0.5,1.7-0.9
		c0.5-0.4,0.9-0.9,1.1-1.4c0.3-0.6,0.4-1.2,0.4-1.9c0-0.8-0.2-1.5-0.5-2c-0.3-0.5-0.8-1-1.4-1.3c-0.6-0.3-1.2-0.6-1.9-0.9
		c-0.7-0.2-1.5-0.5-2.2-0.7c-0.8-0.2-1.5-0.5-2.2-0.8c-0.7-0.3-1.4-0.7-1.9-1.2c-0.6-0.5-1-1.1-1.4-1.9c-0.3-0.8-0.5-1.7-0.5-2.8
		c0-1,0.2-2,0.6-2.8c0.4-0.8,1-1.5,1.7-2c0.7-0.5,1.5-1,2.4-1.2c0.9-0.3,1.9-0.4,2.9-0.4c1.3,0,2.5,0.2,3.6,0.7s2,1.2,2.8,2.3
		l-1.9,1.4c-0.6-0.8-1.2-1.4-1.9-1.7c-0.7-0.4-1.6-0.6-2.6-0.6c-0.7,0-1.4,0.1-2,0.3c-0.6,0.2-1.2,0.5-1.7,0.8
		c-0.5,0.4-0.9,0.8-1.1,1.4c-0.3,0.6-0.4,1.2-0.4,2c0,1.2,0.3,2.1,0.9,2.7c0.6,0.6,1.3,1.1,2.2,1.5c0.9,0.4,1.9,0.7,2.9,1
		c1.1,0.3,2,0.6,2.9,1.1s1.6,1.1,2.2,1.9c0.6,0.8,0.9,2,0.9,3.4c0,1.1-0.2,2-0.6,2.8c-0.4,0.8-0.9,1.5-1.6,2.1
		c-0.7,0.6-1.5,1-2.3,1.3c-0.9,0.3-1.8,0.4-2.8,0.4c-1.6,0-3-0.3-4.3-0.8c-1.3-0.5-2.4-1.5-3.4-2.7L586.5,191.4z"/>
	<polygon class="st1" points="407.8,0.9 408.8,55.7 333.1,55.7 333.1,0.9 328.1,0.9 328.1,122.4 333.1,122.4 333.1,60.7 408.8,60.7 
		408.8,122.4 413.8,122.4 413.8,0.9 	"/>
	<polygon class="st1" points="70.8,1.9 145.3,114.3 145.3,1.9 150.3,1.9 150.3,121.8 144.3,121.8 69.8,9.4 69.8,122.4 64.8,122.4 
		64.8,1.9 	"/>
	<path class="st1" d="M281.4,78.2c0,21.4-17.4,38.8-38.8,38.8h-1.5c-21.4,0-38.8-17.4-38.8-38.8V1.9h-5v76.3
		c0,24.1,19.6,43.8,43.8,43.8h1.5c24.1,0,43.8-19.6,43.8-43.8V1.9h-5V78.2z"/>
	<path class="st1" d="M476.4,63.6h43.2l22.4,58.8h5.4L500.7,0h-5.5l-46.4,122.4h5.3L476.4,63.6z M498,6.9l19.7,51.7h-39.4L498,6.9z"
		/>
</g>
</svg>
